<svg xmlns="http://www.w3.org/2000/svg" viewBox="0 0 24 24">
  <path fill="#000" d="M12 2a10 10 0 0 0-8.6 15l-1 5 5.2-1A10 10 0 1 0 12 2Zm5.8 14.2c-.2.6-1.2 1.2-1.8 1.3-.5.1-1.2.1-1.9-.2-.5-.2-1.2-.5-2-.9-3.5-2-5.8-5.3-6-5.6-.2-.3-1.4-1.9-1.4-3.6 0-1.7.9-2.5 1.2-2.8.3-.3.7-.4.9-.4h.7c.2 0 .5-.1.7.5.2.6.9 2.1 1 2.3.1.2.2.4.1.6-.1.2-.2.4-.3.6-.1.2-.3.4-.4.6-.1.2-.3.4-.1.7.2.3.8 1.3 1.7 2.1 1.2 1.1 2.2 1.5 2.5 1.6.3.1.5.1.7-.1.2-.2.8-.9 1-1.2.2-.3.4-.2.6-.1.2.1 1.6.8 1.9.9.3.1.5.2.6.3.1.1.1.5-.1 1.1Z"/>
</svg>
